<svg width="1440" height="1008" viewBox="0 0 1440 1008" fill="none" xmlns="http://www.w3.org/2000/svg">
<path d="M758.907 1007.08C1036.75 1007.08 1261.99 781.846 1261.99 504C1261.99 226.154 1036.75 0.914795 758.907 0.914795C481.061 0.914795 255.822 226.154 255.822 504C255.822 781.846 481.061 1007.08 758.907 1007.08Z" fill="#ECE3DB"/>
<path d="M1438.75 398.71V344.381C1438.75 334.021 1434.63 324.085 1427.31 316.76C1419.98 309.434 1410.05 305.318 1399.69 305.318H1261.81C1251.45 305.318 1241.51 301.203 1234.19 293.877C1226.86 286.552 1222.75 276.616 1222.75 266.256V211.927C1222.75 201.567 1226.86 191.631 1234.19 184.305C1241.51 176.98 1251.45 172.864 1261.81 172.864H1266.16C1276.52 172.864 1286.46 168.749 1293.78 161.423C1301.11 154.097 1305.23 144.162 1305.23 133.802V79.4725C1305.23 69.1125 1301.11 59.1768 1293.78 51.8511C1286.46 44.5254 1276.52 40.4099 1266.16 40.4099H264.405C254.045 40.4099 244.11 44.5254 236.784 51.8511C229.458 59.1767 225.343 69.1125 225.343 79.4725V133.802C225.343 144.162 229.458 154.097 236.784 161.423C244.11 168.749 254.045 172.864 264.405 172.864C274.766 172.864 284.701 176.98 292.027 184.305C299.353 191.631 303.468 201.567 303.468 211.927V266.256C303.468 276.616 299.353 286.552 292.027 293.877C284.701 301.203 274.766 305.318 264.405 305.318H113.347C102.987 305.318 93.0512 309.434 85.7256 316.76C78.3999 324.085 74.2844 334.021 74.2844 344.381V398.71C74.2844 409.07 78.3999 419.006 85.7256 426.332C93.0512 433.657 102.987 437.773 113.347 437.773H172.62C177.75 437.773 182.829 438.783 187.569 440.746C192.308 442.709 196.614 445.587 200.242 449.214C203.869 452.841 206.746 457.147 208.709 461.887C210.672 466.626 211.683 471.705 211.683 476.835V531.165C211.683 541.525 207.567 551.46 200.242 558.786C192.916 566.112 182.98 570.227 172.62 570.227H172.477C162.117 570.227 152.181 574.343 144.856 581.668C137.53 588.994 133.414 598.93 133.414 609.29V663.619C133.414 673.979 137.53 683.914 144.856 691.24C152.181 698.566 162.117 702.681 172.477 702.681H181.053C186.182 702.681 191.262 703.692 196.001 705.655C200.74 707.618 205.047 710.495 208.674 714.122C212.301 717.75 215.179 722.056 217.142 726.795C219.105 731.535 220.115 736.614 220.115 741.744V796.073C220.115 806.433 215.999 816.369 208.674 823.695C201.348 831.02 191.412 835.136 181.052 835.136H40.3121C29.952 835.136 20.0163 839.251 12.6907 846.577C5.36502 853.903 1.24951 863.838 1.24951 874.198V928.527C1.24955 938.887 5.36507 948.823 12.6907 956.149C20.0164 963.474 29.9521 967.59 40.3121 967.59H1287.13C1297.49 967.59 1307.43 963.474 1314.76 956.149C1322.08 948.823 1326.2 938.887 1326.2 928.527V874.198C1326.2 863.838 1322.08 853.902 1314.76 846.577C1307.43 839.251 1297.49 835.136 1287.13 835.136H1253.27C1242.91 835.136 1232.97 831.02 1225.64 823.694C1218.32 816.369 1214.2 806.433 1214.2 796.073V741.744C1214.2 731.384 1218.32 721.448 1225.64 714.122C1232.97 706.797 1242.91 702.681 1253.27 702.681H1333.13C1343.49 702.681 1353.42 698.566 1360.75 691.24C1368.07 683.914 1372.19 673.979 1372.19 663.619V609.29C1372.19 598.93 1368.07 588.994 1360.75 581.668C1353.42 574.343 1343.49 570.227 1333.13 570.227H1308.9C1298.54 570.227 1288.6 566.112 1281.28 558.786C1273.95 551.46 1269.84 541.525 1269.84 531.165V476.835C1269.84 466.475 1273.95 456.539 1281.28 449.214C1288.6 441.888 1298.54 437.773 1308.9 437.773H1399.69C1410.05 437.773 1419.98 433.657 1427.31 426.331C1434.63 419.006 1438.75 409.07 1438.75 398.71Z" fill="#ECE3DB"/>
<path d="M899.325 12.4768H996.231" stroke="#DBC8B9" stroke-width="9" stroke-miterlimit="10" stroke-linecap="round"/>
<path d="M899.325 40.4099H996.231" stroke="#DBC8B9" stroke-width="9" stroke-miterlimit="10" stroke-linecap="round"/>
<path d="M899.325 68.343H996.231" stroke="#DBC8B9" stroke-width="9" stroke-miterlimit="10" stroke-linecap="round"/>
<path d="M102.459 605.724H199.368" stroke="#DBC8B9" stroke-width="9" stroke-miterlimit="10" stroke-linecap="round"/>
<path d="M102.459 633.654H199.368" stroke="#DBC8B9" stroke-width="9" stroke-miterlimit="10" stroke-linecap="round"/>
<path d="M102.459 661.587H199.368" stroke="#DBC8B9" stroke-width="9" stroke-miterlimit="10" stroke-linecap="round"/>
<path d="M1261.99 861.708H1358.9" stroke="#DBC8B9" stroke-width="9" stroke-miterlimit="10" stroke-linecap="round"/>
<path d="M1261.99 889.638H1358.9" stroke="#DBC8B9" stroke-width="9" stroke-miterlimit="10" stroke-linecap="round"/>
<path d="M1261.99 917.571H1358.9" stroke="#DBC8B9" stroke-width="9" stroke-miterlimit="10" stroke-linecap="round"/>
<path d="M1385.34 384.462C1408.22 384.462 1426.76 365.917 1426.76 343.041C1426.76 320.165 1408.22 301.62 1385.34 301.62C1362.46 301.62 1343.92 320.165 1343.92 343.041C1343.92 365.917 1362.46 384.462 1385.34 384.462Z" fill="#DBC8B9"/>
<path d="M1276.03 394.413C1287.89 394.413 1297.51 384.798 1297.51 372.936C1297.51 361.075 1287.89 351.459 1276.03 351.459C1264.17 351.459 1254.56 361.075 1254.56 372.936C1254.56 384.798 1264.17 394.413 1276.03 394.413Z" fill="#DBC8B9"/>
<path d="M1330.57 272.37C1347.52 272.37 1361.25 258.632 1361.25 241.686C1361.25 224.74 1347.52 211.002 1330.57 211.002C1313.62 211.002 1299.88 224.74 1299.88 241.686C1299.88 258.632 1313.62 272.37 1330.57 272.37Z" fill="#DBC8B9"/>
<path d="M238.14 953.49C265.359 953.49 287.424 931.425 287.424 904.206C287.424 876.988 265.359 854.922 238.14 854.922C210.921 854.922 188.856 876.988 188.856 904.206C188.856 931.425 210.921 953.49 238.14 953.49Z" fill="#DBC8B9"/>
<path d="M140.691 954.465C154.869 954.465 166.362 942.972 166.362 928.794C166.362 914.616 154.869 903.123 140.691 903.123C126.514 903.123 115.02 914.616 115.02 928.794C115.02 942.972 126.514 954.465 140.691 954.465Z" fill="#DBC8B9"/>
<path d="M110.541 858.384C118.719 858.384 125.349 851.754 125.349 843.576C125.349 835.398 118.719 828.768 110.541 828.768C102.362 828.768 95.7327 835.398 95.7327 843.576C95.7327 851.754 102.362 858.384 110.541 858.384Z" fill="#DBC8B9"/>
<path d="M183.963 841.146C203.569 841.146 219.462 825.253 219.462 805.647C219.462 786.042 203.569 770.148 183.963 770.148C164.358 770.148 148.464 786.042 148.464 805.647C148.464 825.253 164.358 841.146 183.963 841.146Z" fill="#DBC8B9"/>
<path d="M496.29 191.673C523.509 191.673 545.574 169.608 545.574 142.389C545.574 115.17 523.509 93.1047 496.29 93.1047C469.071 93.1047 447.006 115.17 447.006 142.389C447.006 169.608 469.071 191.673 496.29 191.673Z" fill="#DBC8B9"/>
<path d="M498.288 67.5747C512.466 67.5747 523.959 56.0814 523.959 41.9037C523.959 27.726 512.466 16.2327 498.288 16.2327C484.11 16.2327 472.617 27.726 472.617 41.9037C472.617 56.0814 484.11 67.5747 498.288 67.5747Z" fill="#DBC8B9"/>
<path d="M669.273 79.122C681.544 79.122 691.491 69.1747 691.491 56.9041C691.491 44.6334 681.544 34.686 669.273 34.686C657.003 34.686 647.055 44.6334 647.055 56.9041C647.055 69.1747 657.003 79.122 669.273 79.122Z" fill="#DBC8B9"/>
<path d="M588.441 50.1209C596.619 50.1209 603.249 43.4911 603.249 35.3129C603.249 27.1347 596.619 20.5049 588.441 20.5049C580.263 20.5049 573.633 27.1347 573.633 35.3129C573.633 43.4911 580.263 50.1209 588.441 50.1209Z" fill="#DBC8B9"/>
<path d="M605.649 151.638C625.255 151.638 641.148 135.744 641.148 116.139C641.148 96.5331 625.255 80.6396 605.649 80.6396C586.044 80.6396 570.15 96.5331 570.15 116.139C570.15 135.744 586.044 151.638 605.649 151.638Z" fill="#DBC8B9"/>
<path d="M1196.89 610.683L869.259 787.164V386.847L1196.89 284.565V610.683Z" fill="#E07114"/>
<path d="M869.259 386.848L482.497 347.722L403.231 230.779C402.314 229.426 401.783 227.848 401.695 226.216C401.606 224.583 401.964 222.958 402.73 221.513C403.496 220.069 404.641 218.86 406.042 218.018C407.443 217.175 409.047 216.729 410.681 216.729H775.016C776.661 216.729 778.274 217.18 779.681 218.033C781.087 218.885 782.234 220.107 782.995 221.565L869.259 386.848Z" fill="#F9892B"/>
<path d="M482.497 748.039L347.425 719.934C345.4 719.512 343.581 718.406 342.276 716.801C340.971 715.196 340.258 713.191 340.258 711.122V329.191C340.258 327.853 340.556 326.533 341.131 325.325C341.705 324.117 342.542 323.052 343.579 322.209C344.617 321.365 345.83 320.763 347.129 320.446C348.429 320.13 349.782 320.107 351.092 320.379L482.497 347.721V748.039ZM999.656 830.576L869.26 787.165V386.847L1005.34 432.151C1007.13 432.748 1008.69 433.894 1009.8 435.427C1010.9 436.96 1011.5 438.801 1011.5 440.691V822.037C1011.5 823.462 1011.16 824.868 1010.51 826.137C1009.86 827.406 1008.92 828.503 1007.76 829.337C1006.61 830.171 1005.27 830.718 1003.86 830.933C1002.45 831.149 1001.01 831.026 999.656 830.576Z" fill="#F9892B"/>
<path d="M869.259 787.164L482.496 748.038V347.721L869.259 386.847V787.164Z" fill="#B57540"/>
<path d="M770.91 894.273L376.279 878.527L482.497 748.039L869.259 787.165L778.036 891.214C777.152 892.223 776.052 893.021 774.819 893.55C773.586 894.08 772.251 894.327 770.91 894.273Z" fill="#F9892B"/>
<path d="M869.259 386.847L1196.89 284.565L796.419 247.287L869.259 386.847Z" fill="#F58120"/>
<path d="M482.496 748.038L869.259 567.444V386.847L482.496 347.721V748.038Z" fill="#8E5525"/>
<path d="M505.687 617.588C505.687 617.588 547.941 599.102 559.165 612.306C570.389 625.511 595.477 631.453 595.477 631.453L617.264 594.48L676.684 622.21L709.035 666.444L687.908 718.602C687.908 718.602 644.993 717.942 624.527 726.525C604.06 735.107 550.582 735.767 550.582 735.767L526.154 688.892C526.154 688.892 495.123 643.337 505.687 617.588Z" fill="#ECE3DB"/>
<path d="M595.477 631.453C599.54 635.053 603.444 638.788 607.269 642.587C611.127 646.359 614.841 650.252 618.568 654.134C622.216 658.082 625.961 661.948 629.498 665.989C633.067 670.003 636.7 673.963 640.148 678.078L632.542 681.84C630.817 674.663 629.114 667.48 627.589 660.257C626.03 653.041 624.697 645.775 623.3 638.523C620.758 623.962 618.386 609.363 617.264 594.48C622.653 608.397 626.794 622.597 630.763 636.835C632.622 643.983 634.545 651.116 636.242 658.3C637.972 665.477 639.526 672.694 641.056 679.915L641.07 679.978C641.272 680.931 641.149 681.924 640.721 682.8C640.293 683.675 639.584 684.382 638.707 684.808C637.831 685.233 636.837 685.353 635.884 685.148C634.931 684.944 634.075 684.426 633.45 683.678C630.011 679.555 626.757 675.278 623.439 671.055C620.089 666.858 616.947 662.487 613.708 658.197C610.548 653.841 607.375 649.496 604.345 645.031C601.284 640.593 598.3 636.09 595.477 631.453Z" fill="#DBC9BA"/>
<path d="M676.684 622.21C674.163 627.645 671.328 632.866 668.501 638.093C665.601 643.27 662.681 648.434 659.602 653.489C656.611 658.604 653.394 663.565 650.255 668.58C647.091 673.578 643.749 678.454 640.506 683.398L635.921 676.484C641.935 675.249 647.971 674.128 654.016 673.057C660.087 672.108 666.121 670.98 672.221 670.179C678.301 669.277 684.414 668.541 690.536 667.852C696.68 667.271 702.814 666.644 709.034 666.445C703.215 668.651 697.311 670.43 691.415 672.254C685.499 673.971 679.572 675.641 673.613 677.144C667.674 678.749 661.669 680.026 655.7 681.484C649.707 682.817 643.703 684.102 637.678 685.273L637.583 685.292C636.711 685.461 635.809 685.366 634.991 685.018C634.174 684.671 633.479 684.087 632.997 683.341C632.514 682.596 632.265 681.723 632.282 680.835C632.3 679.947 632.582 679.085 633.093 678.359C636.497 673.524 639.802 668.623 643.286 663.843C646.795 659.079 650.224 654.262 653.881 649.6C657.449 644.877 661.177 640.262 664.924 635.661C668.745 631.11 672.557 626.553 676.684 622.21Z" fill="#DBC9BA"/>
<path d="M687.907 718.602C683.033 716.292 678.422 713.625 673.786 710.992C669.209 708.279 664.673 705.511 660.229 702.618C651.286 696.906 642.631 690.804 634.136 684.487L640.635 683.203C635.499 691.572 630.177 699.829 624.467 707.85C621.672 711.898 618.707 715.841 615.727 719.777C612.677 723.669 609.626 727.562 606.264 731.265C607.99 726.57 610.029 722.065 612.068 717.559C614.178 713.097 616.301 708.643 618.596 704.293C623.064 695.519 627.92 686.98 632.963 678.554C633.264 678.051 633.661 677.612 634.131 677.263C634.602 676.913 635.137 676.66 635.705 676.517C636.274 676.374 636.864 676.345 637.444 676.431C638.024 676.516 638.581 676.715 639.084 677.016L639.424 677.241L639.463 677.27C648.003 683.527 656.384 690 664.477 696.863C668.551 700.257 672.533 703.776 676.474 707.35C680.356 711.005 684.263 714.625 687.907 718.602Z" fill="#DBC9BA"/>
<path d="M505.687 617.588C528.496 626.154 550.744 635.881 572.911 645.777C583.944 650.83 595.001 655.833 605.933 661.096C616.923 666.238 627.81 671.592 638.692 676.957L638.725 676.973C639.418 677.315 640.008 677.835 640.434 678.479C640.859 679.124 641.106 679.871 641.148 680.642C641.19 681.414 641.026 682.182 640.673 682.87C640.319 683.557 639.79 684.137 639.138 684.552C631.952 689.125 624.616 693.461 617.353 697.913C610.104 702.386 602.698 706.613 595.378 710.974C587.986 715.223 580.627 719.523 573.148 723.634C565.703 727.801 558.181 731.846 550.582 735.768C557.345 730.532 564.193 725.429 571.125 720.457C578.015 715.421 585.025 710.572 592.003 705.672C599.052 700.886 606.016 695.964 613.136 691.289C620.243 686.593 627.277 681.781 634.46 677.205L634.906 684.8C623.936 679.617 612.972 674.423 602.109 669.017C591.189 663.731 580.394 658.185 569.575 652.69C548.037 641.489 526.582 630.12 505.687 617.588Z" fill="#DBC9BA"/>
<path d="M523.456 684.675C531.169 681.762 538.586 678.121 545.609 673.801C552.146 669.944 557.591 664.482 561.428 657.933C564.752 651.228 565.948 643.668 564.857 636.264C563.737 628.113 561.831 620.09 559.164 612.307C565.094 618.751 569.424 626.5 571.806 634.926C574.528 643.984 573.653 653.742 569.364 662.171C564.737 670.251 557.531 676.543 548.901 680.038C540.89 683.525 532.182 685.112 523.456 684.675ZM590.935 658.739C590.446 664.891 589.388 670.985 587.772 676.941C586.235 682.801 584.383 688.573 582.223 694.233C580.077 699.898 577.622 705.441 574.868 710.837C572.112 716.36 568.843 721.612 565.104 726.523C565.581 720.369 566.636 714.273 568.255 708.317C569.79 702.457 571.647 696.685 573.816 691.029C575.97 685.367 578.429 679.826 581.182 674.429C583.94 668.909 587.205 663.656 590.935 658.739Z" fill="#DBC9BA"/>
<path d="M503.494 835.244C503.494 835.244 471.306 868.276 455.937 860.267C440.569 852.259 415.089 856.198 415.089 856.198L408.821 898.652L343.334 895.329L296.712 866.525L296.652 810.251C296.652 810.251 336.659 794.709 352.389 779.053C368.12 763.398 417.416 742.656 417.416 742.656L457.692 776.889C457.692 776.889 503.588 807.413 503.494 835.244Z" fill="#DDCDC0"/>
<path d="M415.089 856.197C405.111 852.092 395.362 847.557 385.654 842.944C380.83 840.581 375.966 838.293 371.187 835.846C366.396 833.422 361.578 831.048 356.835 828.531L360.589 824.299C369.176 836.309 377.47 848.523 385.604 860.849C393.64 873.243 401.581 885.703 408.821 898.651C399.187 887.37 390.254 875.6 381.418 863.764C372.678 851.861 364.099 839.845 355.813 827.625L355.791 827.593C355.426 827.055 355.252 826.411 355.297 825.762C355.341 825.114 355.601 824.499 356.035 824.016C356.47 823.532 357.053 823.208 357.693 823.095C358.333 822.982 358.993 823.087 359.566 823.392C364.305 825.916 368.969 828.58 373.658 831.196C378.361 833.787 382.978 836.539 387.636 839.215C396.89 844.681 406.104 850.224 415.089 856.197Z" fill="#CCB39F"/>
<path d="M343.334 895.328C344.619 883.512 346.471 871.817 348.513 860.162C350.522 848.501 352.861 836.91 355.279 825.336L359.846 828.456L344.406 838.494C339.186 841.729 334.034 845.068 328.76 848.219C323.523 851.429 318.224 854.544 312.908 857.633C307.551 860.661 302.211 863.713 296.711 866.525C301.46 862.575 306.368 858.867 311.26 855.135C316.191 851.463 321.141 847.818 326.152 844.267C331.126 840.658 336.222 837.236 341.251 833.712L356.555 823.468C357.05 823.137 357.632 822.962 358.227 822.965C358.822 822.967 359.402 823.148 359.894 823.484C360.385 823.82 360.764 824.295 360.983 824.848C361.202 825.401 361.251 826.007 361.122 826.588C358.585 838.136 355.968 849.668 353.022 861.128C350.108 872.596 347.004 884.023 343.334 895.328Z" fill="#CCB39F"/>
<path d="M296.652 810.25C301.952 810.891 307.179 811.817 312.413 812.716C317.63 813.68 322.836 814.687 328.016 815.796C338.387 817.971 348.684 820.441 358.938 823.074L355.258 825.489C356.103 820.653 356.85 815.8 357.774 810.976C358.689 806.15 359.566 801.318 360.603 796.512C362.601 786.888 364.781 777.292 367.524 767.787C367.16 777.673 366.232 787.469 365.122 797.236C364.605 802.125 363.929 806.989 363.29 811.859C362.661 816.731 361.854 821.574 361.144 826.433C361.032 827.205 360.617 827.901 359.991 828.367C359.365 828.834 358.579 829.033 357.807 828.92L357.511 828.862L357.464 828.849C347.202 826.245 336.982 823.478 326.837 820.416C321.759 818.906 316.707 817.295 311.666 815.64C306.642 813.921 301.61 812.229 296.652 810.25Z" fill="#CCB39F"/>
<path d="M503.494 835.244C491.339 835.209 479.204 834.868 467.066 834.563C454.932 834.205 442.808 833.688 430.684 833.156C406.445 831.991 382.222 830.559 358.016 828.86L357.994 828.858C357.48 828.821 356.985 828.648 356.56 828.357C356.135 828.066 355.795 827.667 355.575 827.201C355.355 826.734 355.264 826.218 355.309 825.705C355.355 825.192 355.536 824.7 355.835 824.28C360.77 817.338 365.858 810.505 370.871 803.619C375.871 796.723 381.03 789.94 386.101 783.095C391.253 776.307 396.339 769.473 401.607 762.768C406.861 756.053 412.028 749.276 417.416 742.656C412.935 749.921 408.233 757.028 403.618 764.197C399.017 771.376 394.234 778.426 389.516 785.523C384.719 792.562 380.008 799.664 375.139 806.652C370.282 813.65 365.501 820.701 360.568 827.644L358.387 823.065C382.613 824.433 406.822 826.095 431.011 828.05C443.103 829.065 455.194 830.095 467.275 831.285C479.353 832.527 491.433 833.732 503.494 835.244Z" fill="#CCB39F"/>
<path d="M461.779 779.78C455.344 784.981 449.524 790.901 444.435 797.424C439.483 803.546 436.282 810.896 435.174 818.692C434.756 822.496 435.07 826.345 436.097 830.031C437.086 833.842 438.616 837.491 440.642 840.866C444.973 847.903 450.106 854.413 455.937 860.267C448.408 856.077 441.856 850.333 436.716 843.417C431.148 836.194 428.472 827.156 429.21 818.066C430.45 809.136 434.537 800.844 440.865 794.422C446.736 788.134 453.861 783.145 461.779 779.78ZM409.026 829.208C407.725 823.248 406.814 817.208 406.299 811.129C405.728 805.095 405.363 799.057 405.236 793.013C405.088 786.97 405.195 780.921 405.498 774.869C405.746 768.772 406.396 762.698 407.443 756.687C408.751 762.647 409.665 768.686 410.179 774.766C410.746 780.8 411.117 786.838 411.233 792.882C411.369 798.926 411.268 804.974 410.962 811.027C410.712 817.123 410.065 823.197 409.026 829.208Z" fill="#CCB39F"/>
</svg>
