<svg width="1440" height="358" viewBox="0 0 1440 358" fill="none" xmlns="http://www.w3.org/2000/svg">
<g clip-path="url(#clip0_256_1035)">
<path d="M996.344 -0.0530332C993.801 22.0104 979.179 42.1645 956.291 55.1055C933.404 68.0465 927.046 78.4418 926.199 104.324C925.563 119.386 925.139 120.659 920.901 121.296L916.026 121.932V222.703C916.026 310.744 915.603 323.261 912.848 323.261C910.517 323.261 909.669 320.715 909.669 312.653C909.669 304.592 908.821 302.046 906.49 302.046C903.735 302.046 903.311 295.894 903.311 259.616C903.311 218.672 903.099 217.187 899.073 217.187C895.47 217.187 894.834 215.702 894.834 208.701V200.003L879.576 200.639L864.106 201.276L863.47 209.125C863.046 215.277 861.775 216.975 858.172 217.611C853.51 218.247 853.51 218.884 852.874 260.041L852.45 302.046H842.914C833.801 302.046 833.377 302.258 833.377 308.41V314.775H814.093C795.02 314.775 794.808 314.775 797.563 310.32C800.106 306.501 805.616 302.895 816.424 297.803C818.119 296.954 819.815 294.621 820.238 292.711C820.874 289.741 818.331 289.317 800.742 289.317H780.397L780.185 275.952C780.185 268.739 778.914 233.098 777.43 197.033C775.311 145.481 775.311 129.994 777.219 124.902C780.821 116.204 780.821 108.991 777.43 110.264C775.523 110.9 773.828 107.93 772.132 101.354C770.225 93.7165 768.954 92.0193 767.47 94.1407C766.411 95.8379 765.563 99.0202 765.563 100.929C765.563 103.051 763.868 106.445 761.748 108.567C758.993 111.325 758.146 114.507 758.781 118.75C760.265 126.599 759.417 212.944 757.51 255.373L756.026 288.256L736.53 288.893C725.722 289.105 716.821 290.378 716.821 291.439C716.821 296.318 719.788 299.924 724.026 299.924C726.57 299.924 731.868 303.319 735.894 307.35L743.099 314.775H724.662H706.225V307.35C706.225 300.137 706.013 299.924 697.748 299.924H689.272V198.305C689.272 98.5959 689.272 96.6865 685.033 95.6258C682.49 94.9893 680.795 92.6557 680.795 90.1099C680.795 87.5642 679.311 85.0184 677.616 84.3819C675.921 83.5333 674.437 80.5633 674.437 77.381C674.437 71.4409 670.199 60.197 667.868 60.197C665.96 60.197 663.841 68.4708 663.841 76.5325C663.841 81.4119 662.57 83.5333 659.603 84.5941C657.272 85.4427 655.364 87.7763 655.364 90.3221C655.364 92.6557 653.669 94.9893 651.126 95.6258C646.887 96.6865 646.887 98.5959 646.887 183.455V270.224H634.172H621.457V208.701C621.457 155.876 621.033 146.966 618.278 145.905C616.583 145.056 615.099 143.147 615.099 141.662C615.099 139.965 613.616 138.055 611.921 137.419C610.225 136.57 608.742 133.6 608.53 130.418C608.53 127.448 607.682 122.993 606.834 120.871C605.351 117.053 605.139 117.053 603.868 121.932C603.02 124.69 602.384 129.145 602.384 131.691C602.384 134.661 601.113 136.57 599.205 136.57C597.51 136.57 596.026 138.055 596.026 139.965C596.026 141.874 594.543 144.632 592.636 146.117C590.517 147.602 589.033 152.057 588.821 157.997C588.609 166.483 588.185 167.332 582.887 167.968C577.166 168.605 576.954 168.393 576.954 157.997C576.954 149.724 576.106 147.178 573.775 147.178C572.079 147.178 570.596 145.693 570.596 143.996C570.596 142.511 569.324 140.177 567.841 139.328C566.146 138.48 564.238 134.025 563.603 129.357C561.483 115.78 558.517 115.78 556.397 129.357C555.762 134.025 553.854 138.48 552.159 139.328C550.675 140.389 549.828 142.086 550.675 143.147C551.311 144.42 550.04 145.905 547.497 146.541C543.046 147.602 543.046 148.239 543.046 228.218C543.046 291.651 542.411 308.623 540.503 307.774C539.02 307.35 537.748 303.955 537.748 300.349C537.748 294.621 536.901 293.56 532.874 293.56H528L528.636 244.766C529.06 208.064 528.636 195.76 526.728 195.123C525.033 194.275 523.973 186.849 523.338 172.211L522.702 150.36L522.278 172.211C522.066 187.274 521.007 194.275 519.311 194.911C517.192 195.76 516.768 207.216 517.192 244.766L517.828 293.56H465.695H413.563L414.199 264.92L414.834 236.28H408.053C401.272 236.28 401.06 236.068 401.06 226.521C401.06 220.369 399.576 215.065 397.245 212.095L393.642 207.216L389.828 212.095C387.921 214.853 385.589 221.43 384.954 226.733C383.682 235.431 383.046 236.28 377.536 236.28C371.815 236.28 371.391 236.916 371.391 243.917V251.767L363.338 250.282C359.099 249.645 352.742 249.009 349.351 249.009C345.113 249.009 343.629 248.16 344.477 246.039C345.324 243.705 343.841 242.644 338.331 242.22C331.338 241.584 330.49 240.735 327.099 230.34C322.225 216.338 313.748 207.216 297.219 199.154C285.563 193.426 284.503 192.153 284.503 185.789C284.503 182.182 283.656 179 282.384 179C281.324 179 280.265 182.182 280.265 185.789C280.265 192.153 279.205 193.426 267.55 199.154C251.02 207.216 242.543 216.338 237.669 230.34C234.278 240.735 233.43 241.584 226.649 242.22C220.503 242.857 219.444 243.493 220.291 247.1C221.351 250.918 220.079 251.13 203.762 251.343C194.013 251.343 187.232 251.979 188.715 252.615C190.411 253.252 191.258 259.404 191.258 272.557C191.258 289.954 191.046 291.439 187.02 291.439C183.417 291.439 182.781 292.924 182.781 299.924C182.781 308.198 182.57 308.41 175.364 308.41H167.947V227.794V147.178H150.993C141.033 147.178 134.04 146.329 134.04 145.056C134.04 143.783 124.927 142.935 110.728 142.935H87.4172V215.065V287.196H65.1655H42.9139V305.228V323.261H21.7218H0.529785V340.233V357.204H720H1439.47V340.233V323.261H1428.45H1417.22L1417.85 275.527L1418.49 227.794H1413.19C1408.74 227.794 1407.89 226.733 1407.26 219.732L1406.62 211.883L1373.35 211.247L1340.08 210.61L1339.44 233.522C1338.81 253.252 1338.38 256.434 1335.21 257.071C1331.6 257.707 1331.39 254.737 1331.39 218.247C1331.39 180.485 1331.18 178.576 1327.15 177.515C1324.82 176.879 1322.91 175.181 1322.91 173.696C1322.91 172.211 1321.01 170.514 1318.68 169.878C1316.34 169.241 1314.44 167.332 1314.44 165.423C1314.44 163.513 1312.95 162.028 1311.26 162.028C1309.56 162.028 1308.08 160.543 1308.08 158.634C1308.08 156.724 1306.17 154.815 1303.84 154.179C1301.51 153.542 1299.6 151.845 1299.6 150.148C1299.6 148.239 1296 147.178 1288.58 146.753C1277.35 146.117 1277.35 146.117 1277.56 139.116L1277.77 132.327H1254.68H1231.79V139.753V147.178H1221.19C1213.14 147.178 1210.6 148.026 1210.6 150.36C1210.6 152.057 1209.11 153.542 1207.21 153.542C1205.3 153.542 1203.39 155.452 1202.75 157.785C1202.12 160.119 1200.21 162.028 1198.52 162.028C1196.82 162.028 1194.91 163.937 1194.28 166.271C1193.64 168.605 1191.74 170.514 1190.25 170.514C1188.56 170.514 1187.28 171.999 1187.28 173.696C1187.28 175.393 1185.38 176.879 1183.05 176.879C1179.02 176.879 1178.81 178.364 1178.81 232.037V287.196H1165.03H1151.26V220.369C1151.26 162.452 1150.83 153.542 1148.08 153.542C1144.26 153.542 1143.84 145.693 1147.44 144.632C1151.47 143.147 1144.05 136.57 1138.75 136.57C1136.21 136.57 1134.3 135.297 1134.3 133.388C1134.3 130.842 1131.13 130.206 1118.41 130.206H1102.73L1102.09 146.541C1101.46 161.816 1101.03 163.089 1096.79 163.725C1092.13 164.362 1091.92 163.937 1091.92 147.39V130.206H1074.97C1061.4 130.206 1058.01 130.842 1058.01 133.388C1058.01 135.085 1056.11 136.57 1053.77 136.57C1051.44 136.57 1049.54 137.419 1049.54 138.692C1049.54 139.753 1048.05 140.813 1046.36 140.813C1044.66 140.813 1043.18 141.662 1043.18 142.935C1043.18 143.996 1044.24 145.056 1045.3 145.056C1048.26 145.056 1048.05 152.906 1045.09 153.967C1043.6 154.391 1042.75 170.938 1042.54 204.458L1042.12 254.313L1020.5 254.949L998.675 255.585L998.252 122.356C997.828 49.1653 996.98 -5.99318 996.344 -0.0530332Z" fill="white"/>
</g>
<defs>
<clipPath id="clip0_256_1035">
<rect width="1440" height="358" fill="white"/>
</clipPath>
</defs>
</svg>
