<svg width="1632" height="1086" viewBox="0 0 1632 1086" fill="none" xmlns="http://www.w3.org/2000/svg">
<path d="M1631.03 513.115V458.542C1631.03 453.389 1630.02 448.286 1628.04 443.526C1626.07 438.765 1623.18 434.44 1619.54 430.796C1615.89 427.152 1611.57 424.262 1606.81 422.29C1602.05 420.318 1596.94 419.303 1591.79 419.303H1483.29C1472.89 419.303 1462.91 415.169 1455.55 407.811C1448.19 400.452 1444.06 390.472 1444.06 380.065V325.491C1444.06 303.821 1491.62 286.253 1513.29 286.253H1517.67C1528.07 286.253 1538.05 282.119 1545.41 274.76C1552.77 267.402 1556.91 257.421 1556.91 247.015V192.441C1556.91 187.288 1555.89 182.186 1553.92 177.425C1551.95 172.665 1549.06 168.339 1545.41 164.696C1541.77 161.052 1537.44 158.162 1532.68 156.19C1527.92 154.218 1522.82 153.203 1517.67 153.203H191.945C186.793 153.203 181.69 154.218 176.93 156.19C172.169 158.162 167.843 161.052 164.2 164.696C160.556 168.339 157.666 172.665 155.694 177.425C153.722 182.186 152.707 187.288 152.707 192.441V247.015C152.707 252.168 153.722 257.27 155.694 262.031C157.666 266.791 160.556 271.117 164.2 274.76C167.843 278.404 172.169 281.294 176.93 283.266C181.69 285.238 186.793 286.253 191.945 286.253C202.352 286.253 212.333 290.387 219.691 297.746C227.05 305.104 231.184 315.085 231.184 325.491V380.065C231.184 390.472 227.05 400.452 219.691 407.811C212.333 415.169 202.352 419.303 191.946 419.303H40.2073C35.0545 419.303 29.9521 420.318 25.1915 422.29C20.4308 424.262 16.1053 427.152 12.4616 430.796C8.81801 434.44 5.92773 438.765 3.95582 443.526C1.98391 448.286 0.96899 453.389 0.968994 458.542V513.115C0.968994 523.522 5.10302 533.502 12.4616 540.861C19.8203 548.219 29.8007 552.353 40.2073 552.353H99.7471C110.154 552.353 120.134 556.488 127.493 563.846C134.851 571.205 138.985 581.185 138.985 591.592V646.166C138.985 651.318 137.971 656.421 135.999 661.181C134.027 665.942 131.136 670.268 127.493 673.911C123.849 677.555 119.524 680.445 114.763 682.417C110.002 684.389 104.9 685.404 99.7471 685.404H99.6031C89.1964 685.404 79.216 689.538 71.8574 696.897C64.4988 704.255 60.3647 714.236 60.3647 724.642V779.216C60.3647 784.368 61.3797 789.471 63.3516 794.231C65.3235 798.992 68.2138 803.318 71.8574 806.961C75.501 810.605 79.8266 813.495 84.5872 815.467C89.3478 817.439 94.4502 818.454 99.6031 818.454H108.217C118.624 818.454 128.604 822.588 135.963 829.947C143.322 837.305 147.456 847.286 147.456 857.692V912.266C147.456 922.673 143.322 932.653 135.963 940.012C128.604 947.37 118.624 951.504 108.217 951.504H56.8438C51.691 951.504 46.5886 952.519 41.828 954.491C37.0673 956.463 32.7417 959.353 29.0981 962.997C25.4545 966.641 22.5642 970.966 20.5923 975.727C18.6204 980.487 17.6055 985.59 17.6055 990.743V1045.32C17.6055 1055.72 21.7395 1065.7 29.0981 1073.06C36.4568 1080.42 46.4372 1084.55 56.8438 1084.55H1508.73C1519.14 1084.55 1529.12 1080.42 1536.48 1073.06C1543.84 1065.7 1547.97 1055.72 1547.97 1045.32V990.743C1547.97 985.59 1546.96 980.487 1544.98 975.727C1543.01 970.966 1540.12 966.641 1536.48 962.997C1532.83 959.353 1528.51 956.463 1523.75 954.491C1518.99 952.519 1513.89 951.504 1508.73 951.504H1474.71C1464.3 951.504 1454.32 947.37 1446.97 940.012C1439.61 932.653 1435.47 922.673 1435.47 912.266V857.692C1435.47 847.286 1439.61 837.305 1446.97 829.947C1454.32 822.588 1464.3 818.454 1474.71 818.454H1554.93C1565.34 818.454 1575.32 814.32 1582.68 806.961C1590.04 799.603 1594.17 789.622 1594.17 779.216V724.642C1594.17 714.236 1590.04 704.255 1582.68 696.897C1575.32 689.538 1565.34 685.404 1554.93 685.404H1530.6C1520.19 685.404 1510.21 681.27 1502.85 673.911C1495.49 666.553 1491.36 656.572 1491.36 646.166V591.592C1491.36 581.185 1495.49 571.205 1502.85 563.846C1510.21 556.488 1520.19 552.353 1530.6 552.353H1591.79C1602.2 552.353 1612.18 548.219 1619.54 540.861C1626.9 533.502 1631.03 523.522 1631.03 513.115Z" fill="#ECE3DB"/>
<path d="M506.347 417.494C506.338 437.393 498.432 456.474 484.365 470.547C470.298 484.621 451.22 492.535 431.322 492.553H150.971C136.699 492.554 122.931 487.279 112.313 477.743C101.695 468.206 94.9768 455.08 93.451 440.89C91.9253 426.7 95.6991 412.446 104.047 400.87C112.395 389.294 124.728 381.213 138.674 378.18C139.789 361.293 147.279 345.461 159.625 333.888C171.972 322.314 188.255 315.863 205.178 315.84C212.031 315.841 218.841 316.929 225.353 319.063C235.232 299.955 250.727 284.33 269.752 274.291C288.777 264.252 310.421 260.281 331.771 262.911C353.121 265.541 373.154 274.647 389.174 289.003C405.194 303.359 416.433 322.278 421.379 343.213C431.973 341.781 442.75 342.633 452.988 345.71C463.225 348.788 472.685 354.021 480.733 361.056C488.782 368.092 495.231 376.769 499.649 386.503C504.067 396.237 506.351 406.804 506.347 417.494Z" fill="#F9AE2B"/>
<path d="M993.84 858.24L938.104 775.379C983.037 735.457 1011.35 680.129 1017.46 620.334C1023.56 560.54 1007 500.632 971.06 452.457C935.118 404.282 882.408 371.347 823.352 360.165C764.296 348.982 703.194 360.367 652.127 392.067C601.061 423.767 563.749 473.475 547.568 531.361C531.388 589.248 537.517 651.098 564.744 704.683C591.971 758.268 638.313 799.686 694.608 820.747C750.903 841.808 813.051 840.979 868.764 818.423L923.095 898.835C925.761 903.48 929.315 907.555 933.555 910.826C937.795 914.098 942.638 916.502 947.808 917.902C952.977 919.302 958.372 919.67 963.683 918.985C968.995 918.3 974.12 916.575 978.765 913.91C983.41 911.244 987.485 907.69 990.756 903.45C994.028 899.21 996.432 894.366 997.832 889.197C999.232 884.028 999.6 878.633 998.915 873.321C998.23 868.01 996.505 862.885 993.84 858.24Z" fill="#F58120"/>
<path d="M779.199 766.683C873.719 766.683 950.343 690.059 950.343 595.539C950.343 501.019 873.719 424.395 779.199 424.395C684.679 424.395 608.055 501.019 608.055 595.539C608.055 690.059 684.679 766.683 779.199 766.683Z" fill="#EE781D"/>
<path d="M779.199 424.396C771.028 424.405 762.869 424.994 754.782 426.159C795.52 432.028 832.778 452.383 859.727 483.492C886.676 514.602 901.509 554.382 901.509 595.54C901.509 636.699 886.676 676.478 859.727 707.588C832.778 738.697 795.52 759.052 754.782 764.921C778.047 768.275 801.754 766.801 824.424 760.59C847.095 754.379 868.242 743.564 886.549 728.82C904.856 714.076 919.929 695.719 930.829 674.893C941.729 654.068 948.222 631.22 949.903 607.774C951.584 584.329 948.418 560.788 940.6 538.62C932.783 516.452 920.483 496.132 904.467 478.927C888.451 461.722 869.063 448.001 847.511 438.619C825.958 429.237 802.705 424.396 779.199 424.396Z" fill="#E06714"/>
<path d="M687.531 625.362C702.159 625.362 714.018 613.503 714.018 598.875C714.018 584.247 702.159 572.388 687.531 572.388C672.902 572.388 661.044 584.247 661.044 598.875C661.044 613.503 672.902 625.362 687.531 625.362Z" fill="#F9AE2B"/>
<path d="M864.837 581.277C874.964 581.277 883.173 573.068 883.173 562.941C883.173 552.814 874.964 544.605 864.837 544.605C854.71 544.605 846.501 552.814 846.501 562.941C846.501 573.068 854.71 581.277 864.837 581.277Z" fill="#E06714"/>
<path d="M762.447 539.142C769.199 539.142 774.672 533.669 774.672 526.917C774.672 520.165 769.199 514.692 762.447 514.692C755.695 514.692 750.222 520.165 750.222 526.917C750.222 533.669 755.695 539.142 762.447 539.142Z" fill="#E06714"/>
<path d="M766.974 701.943C773.726 701.943 779.199 696.47 779.199 689.718C779.199 682.966 773.726 677.493 766.974 677.493C760.222 677.493 754.749 682.966 754.749 689.718C754.749 696.47 760.222 701.943 766.974 701.943Z" fill="#E06714"/>
<path d="M837.621 661.485C846.756 661.485 854.16 654.08 854.16 644.946C854.16 635.812 846.756 628.407 837.621 628.407C828.487 628.407 821.082 635.812 821.082 644.946C821.082 654.08 828.487 661.485 837.621 661.485Z" fill="#F9AE2B"/>
<path d="M651.648 762.933C656.837 762.933 661.044 758.726 661.044 753.537C661.044 748.348 656.837 744.141 651.648 744.141C646.459 744.141 642.252 748.348 642.252 753.537C642.252 758.726 646.459 762.933 651.648 762.933Z" fill="#FFA154"/>
<path d="M959.739 504.18C964.928 504.18 969.135 499.973 969.135 494.784C969.135 489.595 964.928 485.388 959.739 485.388C954.55 485.388 950.343 489.595 950.343 494.784C950.343 499.973 954.55 504.18 959.739 504.18Z" fill="#FFA154"/>
<path d="M954.032 696.129C948.329 708.234 941.337 719.688 933.177 730.292C924.735 740.834 915.263 750.507 904.9 759.167C894.319 767.685 882.937 775.158 870.915 781.481C846.593 793.967 819.89 801.126 792.584 802.479C785.777 802.542 778.984 802.793 772.202 802.381C765.429 802.002 758.683 801.248 751.993 800.124C725.348 795.846 700.03 785.544 677.967 770.002C701.719 781.091 727.156 788.134 753.228 790.843C778.91 793.349 804.834 791.224 829.765 784.57C842.167 781.193 854.256 776.761 865.901 771.321C877.506 765.693 888.647 759.154 899.22 751.767C909.71 744.098 919.589 735.628 928.769 726.431C937.885 716.931 946.327 706.805 954.032 696.129ZM581.501 635.55C572.09 600.906 572.842 564.286 583.669 530.058C589.031 512.817 596.741 496.396 606.583 481.258C611.512 473.684 616.962 466.463 622.894 459.646C628.779 452.782 635.116 446.319 641.864 440.301C648.662 434.339 655.825 428.806 663.312 423.734C667.15 421.351 670.852 418.743 674.827 416.586L680.714 413.231L686.772 410.194C690.784 408.119 695.01 406.488 699.127 404.651C703.368 403.103 707.515 401.316 711.842 400.024C720.388 397.168 729.13 394.935 738 393.344C755.674 390.224 773.691 389.523 791.555 391.263C809.232 393.065 826.555 397.418 842.984 404.186C826.052 399.845 808.675 397.482 791.199 397.144C773.943 396.885 756.717 398.689 739.889 402.517C723.211 406.446 707.086 412.433 691.885 420.341C684.304 424.267 676.963 428.639 669.9 433.434C662.892 438.302 656.186 443.591 649.821 449.273C624.066 472.017 604.369 500.808 592.504 533.054C580.622 565.832 576.847 600.998 581.501 635.55Z" fill="#FFA154"/>
<path d="M450.806 772.536V842.031C450.806 902.388 454.465 906.96 519.39 913.358V938.966H305.408V913.358C373.992 906.96 378.564 901.472 378.564 841.116V772.536H137.149V745.102C224.022 621.648 318.211 488.14 409.656 361.029H450.806V728.638H540.424V772.536L450.806 772.536ZM378.564 457.049C320.955 541.177 256.942 634.45 193.846 728.638H378.564V457.049ZM1354.28 772.536V842.031C1354.28 902.388 1357.94 906.96 1422.86 913.358V938.966H1208.88V913.358C1277.46 906.96 1282.04 901.472 1282.04 841.116V772.536H1040.62V745.102C1127.49 621.648 1221.68 488.14 1313.13 361.029H1354.28V728.638H1443.9V772.536L1354.28 772.536ZM1282.04 457.049C1224.43 541.177 1160.41 634.45 1097.32 728.638H1282.04V457.049Z" fill="#F58120"/>
<path d="M1498.32 206.096C1498.3 232.306 1487.89 257.438 1469.36 275.975C1450.83 294.512 1425.71 304.937 1399.5 304.96H1030.23C1011.43 304.962 993.298 298.014 979.313 285.452C965.327 272.891 956.479 255.603 954.469 236.912C952.459 218.221 957.43 199.447 968.426 184.2C979.421 168.953 995.665 158.308 1014.03 154.313C1015.5 132.071 1025.37 111.218 1041.63 95.9737C1057.89 80.7293 1079.34 72.2325 1101.63 72.2025C1110.66 72.2031 1119.63 73.6361 1128.2 76.4478C1141.22 51.2787 1161.62 30.6985 1186.68 17.4757C1211.74 4.25292 1240.25 -0.978121 1268.37 2.48626C1296.49 5.95064 1322.88 17.9443 1343.98 36.8537C1365.08 55.7631 1379.89 80.6813 1386.4 108.256C1400.35 106.37 1414.55 107.492 1428.03 111.546C1441.52 115.6 1453.98 122.492 1464.58 131.759C1475.18 141.026 1483.67 152.455 1489.49 165.276C1495.31 178.098 1498.32 192.016 1498.32 206.096ZM1497.8 979.124C1497.79 999.022 1489.88 1018.1 1475.82 1032.18C1461.75 1046.25 1442.67 1054.16 1422.77 1054.18H1142.42C1128.15 1054.18 1114.38 1048.91 1103.76 1039.37C1093.15 1029.84 1086.43 1016.71 1084.9 1002.52C1083.38 988.329 1087.15 974.076 1095.5 962.5C1103.85 950.924 1116.18 942.842 1130.12 939.809C1131.24 922.923 1138.73 907.091 1151.08 895.517C1163.42 883.944 1179.71 877.493 1196.63 877.47C1203.48 877.47 1210.29 878.558 1216.8 880.693C1226.68 861.584 1242.18 845.959 1261.2 835.921C1280.23 825.882 1301.87 821.91 1323.22 824.54C1344.57 827.171 1364.6 836.276 1380.62 850.632C1396.64 864.989 1407.88 883.907 1412.83 904.842C1423.42 903.411 1434.2 904.262 1444.44 907.34C1454.68 910.417 1464.14 915.65 1472.18 922.686C1480.23 929.722 1486.68 938.398 1491.1 948.132C1495.52 957.867 1497.8 968.434 1497.8 979.124Z" fill="#F9AE2B"/>
<path d="M198.675 132.981H295.584" stroke="#DBC8B9" stroke-width="9" stroke-miterlimit="10" stroke-linecap="round"/>
<path d="M198.675 160.911H295.584" stroke="#DBC8B9" stroke-width="9" stroke-miterlimit="10" stroke-linecap="round"/>
<path d="M198.675 188.844H295.584" stroke="#DBC8B9" stroke-width="9" stroke-miterlimit="10" stroke-linecap="round"/>
<path d="M661.785 960.771H758.694" stroke="#DBC8B9" stroke-width="9" stroke-miterlimit="10" stroke-linecap="round"/>
<path d="M661.785 988.704H758.694" stroke="#DBC8B9" stroke-width="9" stroke-miterlimit="10" stroke-linecap="round"/>
<path d="M661.785 1016.63H758.694" stroke="#DBC8B9" stroke-width="9" stroke-miterlimit="10" stroke-linecap="round"/>
<path d="M1449.34 590.946H1546.25" stroke="#DBC8B9" stroke-width="9" stroke-miterlimit="10" stroke-linecap="round"/>
<path d="M1449.34 618.879H1546.25" stroke="#DBC8B9" stroke-width="9" stroke-miterlimit="10" stroke-linecap="round"/>
<path d="M1449.34 646.809H1546.25" stroke="#DBC8B9" stroke-width="9" stroke-miterlimit="10" stroke-linecap="round"/>
<path d="M83.7423 1023.17C110.961 1023.17 133.026 1001.1 133.026 973.884C133.026 946.665 110.961 924.6 83.7423 924.6C56.5235 924.6 34.4583 946.665 34.4583 973.884C34.4583 1001.1 56.5235 1023.17 83.7423 1023.17Z" fill="#DBC8B9"/>
<path d="M145.767 920.472C159.945 920.472 171.438 908.979 171.438 894.801C171.438 880.623 159.945 869.13 145.767 869.13C131.589 869.13 120.096 880.623 120.096 894.801C120.096 908.979 131.589 920.472 145.767 920.472Z" fill="#DBC8B9"/>
<path d="M273.36 1031.83C285.631 1031.83 295.578 1021.88 295.578 1009.61C295.578 997.337 285.631 987.39 273.36 987.39C261.09 987.39 251.142 997.337 251.142 1009.61C251.142 1021.88 261.09 1031.83 273.36 1031.83Z" fill="#DBC8B9"/>
<path d="M221.76 958.557C229.938 958.557 236.568 951.927 236.568 943.749C236.568 935.571 229.938 928.941 221.76 928.941C213.581 928.941 206.952 935.571 206.952 943.749C206.952 951.927 213.581 958.557 221.76 958.557Z" fill="#DBC8B9"/>
<path d="M186.903 1054.18C206.509 1054.18 222.402 1038.28 222.402 1018.68C222.402 999.071 206.509 983.178 186.903 983.178C167.297 983.178 151.404 999.071 151.404 1018.68C151.404 1038.28 167.297 1054.18 186.903 1054.18Z" fill="#DBC8B9"/>
<path d="M765.846 311.151C793.065 311.151 815.13 289.086 815.13 261.867C815.13 234.648 793.065 212.583 765.846 212.583C738.627 212.583 716.562 234.648 716.562 261.867C716.562 289.086 738.627 311.151 765.846 311.151Z" fill="#DBC8B9"/>
<path d="M668.082 333.369C680.353 333.369 690.3 323.422 690.3 311.151C690.3 298.88 680.353 288.933 668.082 288.933C655.812 288.933 645.864 298.88 645.864 311.151C645.864 323.422 655.812 333.369 668.082 333.369Z" fill="#DBC8B9"/>
<path d="M640.845 261.867C660.45 261.867 676.344 245.973 676.344 226.368C676.344 206.762 660.45 190.869 640.845 190.869C621.239 190.869 605.346 206.762 605.346 226.368C605.346 245.973 621.239 261.867 640.845 261.867Z" fill="#DBC8B9"/>
</svg>
